<svg width="791" height="211" viewBox="0 0 791 211" fill="none" xmlns="http://www.w3.org/2000/svg">
<path fill-rule="evenodd" clip-rule="evenodd" d="M229.924 56.9628C229.924 94.8226 229.982 113.926 230.097 113.926C230.205 113.926 230.27 114.907 230.27 116.523C230.27 118.139 230.336 119.12 230.444 119.12C230.547 119.12 230.617 119.812 230.617 120.851C230.617 121.89 230.686 122.583 230.79 122.583C230.891 122.583 230.963 123.16 230.963 123.968C230.963 124.776 231.035 125.353 231.136 125.353C231.237 125.353 231.309 125.93 231.309 126.738C231.309 127.546 231.381 128.123 231.482 128.123C231.579 128.123 231.655 128.585 231.655 129.162C231.655 129.739 231.732 130.201 231.829 130.201C231.924 130.201 232.002 130.59 232.002 131.066C232.002 131.542 232.08 131.932 232.175 131.932C232.271 131.932 232.348 132.394 232.348 132.971C232.348 133.548 232.425 134.01 232.521 134.01C232.616 134.01 232.694 134.399 232.694 134.875C232.694 135.352 232.772 135.741 232.867 135.741C232.963 135.741 233.041 136.053 233.041 136.434C233.041 136.815 233.118 137.126 233.214 137.126C233.309 137.126 233.387 137.516 233.387 137.992C233.387 138.468 233.465 138.858 233.56 138.858C233.655 138.858 233.733 139.169 233.733 139.55C233.733 139.931 233.811 140.243 233.906 140.243C234.001 140.243 234.079 140.554 234.079 140.935C234.079 141.316 234.157 141.628 234.252 141.628C234.348 141.628 234.426 141.862 234.426 142.147C234.426 142.433 234.504 142.667 234.599 142.667C234.694 142.667 234.772 142.978 234.772 143.359C234.772 143.74 234.85 144.052 234.945 144.052C235.04 144.052 235.118 144.286 235.118 144.571C235.118 144.857 235.196 145.091 235.291 145.091C235.387 145.091 235.464 145.324 235.464 145.61C235.464 145.896 235.542 146.129 235.638 146.129C235.733 146.129 235.811 146.363 235.811 146.649C235.811 146.935 235.889 147.168 235.984 147.168C236.079 147.168 236.157 147.402 236.157 147.688C236.157 147.973 236.235 148.207 236.33 148.207C236.425 148.207 236.503 148.441 236.503 148.727C236.503 149.012 236.581 149.246 236.676 149.246C236.772 149.246 236.85 149.48 236.85 149.765C236.85 150.051 236.927 150.285 237.023 150.285C237.118 150.285 237.196 150.519 237.196 150.804C237.196 151.09 237.274 151.324 237.369 151.324C237.464 151.324 237.542 151.479 237.542 151.67C237.542 151.86 237.62 152.016 237.715 152.016C237.81 152.016 237.888 152.25 237.888 152.536C237.888 152.821 237.966 153.055 238.061 153.055C238.157 153.055 238.235 153.211 238.235 153.401C238.235 153.592 238.313 153.748 238.408 153.748C238.503 153.748 238.581 153.981 238.581 154.267C238.581 154.553 238.659 154.786 238.754 154.786C238.849 154.786 238.927 154.942 238.927 155.133C238.927 155.323 239.005 155.479 239.1 155.479C239.196 155.479 239.273 155.635 239.273 155.825C239.273 156.016 239.351 156.172 239.447 156.172C239.542 156.172 239.62 156.327 239.62 156.518C239.62 156.708 239.698 156.864 239.793 156.864C239.888 156.864 239.966 157.098 239.966 157.383C239.966 157.669 240.044 157.903 240.139 157.903C240.234 157.903 240.312 158.059 240.312 158.249C240.312 158.44 240.39 158.595 240.485 158.595C240.581 158.595 240.659 158.751 240.659 158.942C240.659 159.132 240.736 159.288 240.832 159.288C240.927 159.288 241.005 159.444 241.005 159.634C241.005 159.825 241.083 159.981 241.178 159.981C241.273 159.981 241.351 160.136 241.351 160.327C241.351 160.517 241.429 160.673 241.524 160.673C241.619 160.673 241.697 160.812 241.697 160.981C241.697 161.151 241.853 161.402 242.044 161.539C242.234 161.676 242.39 161.927 242.39 162.097C242.39 162.266 242.468 162.405 242.563 162.405C242.658 162.405 242.736 162.56 242.736 162.751C242.736 162.941 242.814 163.097 242.909 163.097C243.005 163.097 243.082 163.253 243.082 163.443C243.082 163.634 243.16 163.79 243.256 163.79C243.351 163.79 243.429 163.928 243.429 164.098C243.429 164.267 243.585 164.518 243.775 164.655C243.965 164.793 244.121 165.044 244.121 165.213C244.121 165.382 244.199 165.521 244.294 165.521C244.39 165.521 244.468 165.66 244.468 165.829C244.468 165.999 244.623 166.249 244.814 166.387C245.004 166.524 245.16 166.758 245.16 166.906C245.16 167.055 245.316 167.288 245.506 167.426C245.697 167.563 245.853 167.797 245.853 167.945C245.853 168.093 246.008 168.327 246.199 168.464C246.389 168.602 246.545 168.835 246.545 168.984C246.545 169.132 246.701 169.366 246.891 169.503C247.082 169.641 247.238 169.86 247.238 169.991C247.238 170.123 247.471 170.448 247.757 170.715C248.043 170.982 248.276 171.294 248.276 171.408C248.276 171.522 248.51 171.834 248.796 172.1C249.082 172.367 249.315 172.677 249.315 172.789C249.315 172.901 249.627 173.293 250.008 173.659C250.389 174.025 250.7 174.413 250.7 174.522C250.7 174.631 251.09 175.099 251.566 175.563C252.042 176.027 252.432 176.49 252.432 176.592C252.432 176.833 258.778 183.181 259.019 183.181C259.12 183.181 259.662 183.649 260.223 184.22C260.784 184.791 261.331 185.259 261.439 185.259C261.547 185.259 261.934 185.571 262.3 185.951C262.666 186.332 263.058 186.644 263.17 186.644C263.282 186.644 263.592 186.878 263.859 187.163C264.125 187.449 264.437 187.683 264.551 187.683C264.665 187.683 264.977 187.917 265.244 188.202C265.511 188.488 265.836 188.722 265.967 188.722C266.099 188.722 266.318 188.878 266.456 189.068C266.593 189.258 266.827 189.414 266.975 189.414C267.124 189.414 267.357 189.57 267.495 189.761C267.632 189.951 267.866 190.107 268.014 190.107C268.162 190.107 268.396 190.263 268.533 190.453C268.671 190.644 268.904 190.799 269.053 190.799C269.201 190.799 269.435 190.955 269.572 191.146C269.709 191.336 269.96 191.492 270.13 191.492C270.299 191.492 270.438 191.57 270.438 191.665C270.438 191.76 270.577 191.838 270.746 191.838C270.915 191.838 271.166 191.994 271.304 192.184C271.441 192.375 271.692 192.531 271.861 192.531C272.031 192.531 272.169 192.609 272.169 192.704C272.169 192.799 272.308 192.877 272.477 192.877C272.647 192.877 272.898 193.033 273.035 193.223C273.172 193.414 273.423 193.57 273.593 193.57C273.762 193.57 273.901 193.647 273.901 193.743C273.901 193.838 274.056 193.916 274.247 193.916C274.437 193.916 274.593 193.994 274.593 194.089C274.593 194.184 274.749 194.262 274.939 194.262C275.13 194.262 275.286 194.34 275.286 194.435C275.286 194.53 275.424 194.608 275.594 194.608C275.763 194.608 276.014 194.764 276.151 194.955C276.289 195.145 276.539 195.301 276.709 195.301C276.878 195.301 277.017 195.379 277.017 195.474C277.017 195.569 277.173 195.647 277.363 195.647C277.554 195.647 277.71 195.725 277.71 195.82C277.71 195.916 277.865 195.994 278.056 195.994C278.246 195.994 278.402 196.071 278.402 196.167C278.402 196.262 278.558 196.34 278.748 196.34C278.939 196.34 279.095 196.418 279.095 196.513C279.095 196.608 279.25 196.686 279.441 196.686C279.631 196.686 279.787 196.764 279.787 196.859C279.787 196.954 280.021 197.032 280.307 197.032C280.592 197.032 280.826 197.11 280.826 197.205C280.826 197.301 280.982 197.379 281.172 197.379C281.363 197.379 281.519 197.457 281.519 197.552C281.519 197.647 281.674 197.725 281.865 197.725C282.055 197.725 282.211 197.803 282.211 197.898C282.211 197.993 282.367 198.071 282.557 198.071C282.748 198.071 282.904 198.149 282.904 198.244C282.904 198.34 283.059 198.417 283.25 198.417C283.44 198.417 283.596 198.495 283.596 198.591C283.596 198.686 283.83 198.764 284.116 198.764C284.401 198.764 284.635 198.842 284.635 198.937C284.635 199.032 284.791 199.11 284.981 199.11C285.172 199.11 285.328 199.188 285.328 199.283C285.328 199.378 285.561 199.456 285.847 199.456C286.133 199.456 286.366 199.534 286.366 199.629C286.366 199.725 286.522 199.803 286.713 199.803C286.903 199.803 287.059 199.88 287.059 199.976C287.059 200.071 287.293 200.149 287.578 200.149C287.864 200.149 288.098 200.227 288.098 200.322C288.098 200.417 288.253 200.495 288.444 200.495C288.634 200.495 288.79 200.573 288.79 200.668C288.79 200.764 289.024 200.841 289.31 200.841C289.595 200.841 289.829 200.919 289.829 201.015C289.829 201.11 290.063 201.188 290.348 201.188C290.634 201.188 290.868 201.266 290.868 201.361C290.868 201.456 291.102 201.534 291.387 201.534C291.673 201.534 291.907 201.612 291.907 201.707C291.907 201.802 292.14 201.88 292.426 201.88C292.712 201.88 292.945 201.958 292.945 202.053C292.945 202.149 293.179 202.227 293.465 202.227C293.751 202.227 293.984 202.304 293.984 202.4C293.984 202.495 294.218 202.573 294.504 202.573C294.789 202.573 295.023 202.651 295.023 202.746C295.023 202.841 295.257 202.919 295.543 202.919C295.828 202.919 296.062 202.997 296.062 203.092C296.062 203.187 296.374 203.265 296.754 203.265C297.135 203.265 297.447 203.343 297.447 203.439C297.447 203.534 297.681 203.612 297.966 203.612C298.252 203.612 298.486 203.69 298.486 203.785C298.486 203.88 298.797 203.958 299.178 203.958C299.559 203.958 299.871 204.036 299.871 204.131C299.871 204.226 300.105 204.304 300.39 204.304C300.676 204.304 300.91 204.382 300.91 204.477C300.91 204.573 301.221 204.65 301.602 204.65C301.983 204.65 302.295 204.728 302.295 204.824C302.295 204.919 302.606 204.997 302.987 204.997C303.368 204.997 303.68 205.075 303.68 205.17C303.68 205.265 303.992 205.343 304.372 205.343C304.753 205.343 305.065 205.421 305.065 205.516C305.065 205.611 305.455 205.689 305.931 205.689C306.407 205.689 306.796 205.767 306.796 205.862C306.796 205.958 307.108 206.036 307.489 206.036C307.87 206.036 308.181 206.114 308.181 206.209C308.181 206.304 308.571 206.382 309.047 206.382C309.523 206.382 309.913 206.46 309.913 206.555C309.913 206.65 310.302 206.728 310.778 206.728C311.255 206.728 311.644 206.806 311.644 206.901C311.644 206.997 312.034 207.074 312.51 207.074C312.986 207.074 313.375 207.152 313.375 207.248C313.375 207.344 313.837 207.421 314.414 207.421C314.991 207.421 315.453 207.498 315.453 207.594C315.453 207.69 315.915 207.767 316.492 207.767C317.069 207.767 317.531 207.844 317.531 207.94C317.531 208.036 317.992 208.113 318.57 208.113C319.147 208.113 319.608 208.19 319.608 208.286C319.608 208.385 320.128 208.46 320.82 208.46C321.513 208.46 322.032 208.534 322.032 208.633C322.032 208.734 322.609 208.806 323.417 208.806C324.225 208.806 324.802 208.878 324.802 208.979C324.802 209.08 325.379 209.152 326.188 209.152C326.996 209.152 327.573 209.224 327.573 209.325C327.573 209.429 328.265 209.498 329.304 209.498C330.343 209.498 331.035 209.568 331.035 209.672C331.035 209.775 331.728 209.845 332.767 209.845C333.805 209.845 334.498 209.914 334.498 210.018C334.498 210.125 335.479 210.191 337.095 210.191C338.711 210.191 339.692 210.256 339.692 210.364C339.692 210.473 340.904 210.537 342.982 210.537C345.059 210.537 346.271 210.601 346.271 210.71C346.271 210.824 350.657 210.883 359.083 210.883C367.509 210.883 371.895 210.824 371.895 210.71C371.895 210.601 373.107 210.537 375.185 210.537C377.263 210.537 378.474 210.473 378.474 210.364C378.474 210.256 379.456 210.191 381.072 210.191C382.687 210.191 383.669 210.125 383.669 210.018C383.669 209.914 384.361 209.845 385.4 209.845C386.439 209.845 387.131 209.775 387.131 209.672C387.131 209.568 387.824 209.498 388.863 209.498C389.901 209.498 390.594 209.429 390.594 209.325C390.594 209.224 391.171 209.152 391.979 209.152C392.787 209.152 393.364 209.08 393.364 208.979C393.364 208.878 393.941 208.806 394.749 208.806C395.557 208.806 396.134 208.734 396.134 208.633C396.134 208.534 396.654 208.46 397.346 208.46C398.039 208.46 398.558 208.385 398.558 208.286C398.558 208.19 399.02 208.113 399.597 208.113C400.174 208.113 400.636 208.036 400.636 207.94C400.636 207.844 401.098 207.767 401.675 207.767C402.252 207.767 402.713 207.69 402.713 207.594C402.713 207.498 403.175 207.421 403.752 207.421C404.329 207.421 404.791 207.344 404.791 207.248C404.791 207.152 405.181 207.074 405.657 207.074C406.133 207.074 406.522 206.997 406.522 206.901C406.522 206.806 406.834 206.728 407.215 206.728C407.596 206.728 407.908 206.65 407.908 206.555C407.908 206.46 408.297 206.382 408.773 206.382C409.249 206.382 409.639 206.304 409.639 206.209C409.639 206.114 410.028 206.036 410.505 206.036C410.981 206.036 411.37 205.958 411.37 205.862C411.37 205.767 411.682 205.689 412.063 205.689C412.444 205.689 412.755 205.611 412.755 205.516C412.755 205.421 413.067 205.343 413.448 205.343C413.829 205.343 414.14 205.265 414.14 205.17C414.14 205.075 414.452 204.997 414.833 204.997C415.214 204.997 415.525 204.919 415.525 204.824C415.525 204.728 415.837 204.65 416.218 204.65C416.599 204.65 416.911 204.573 416.911 204.477C416.911 204.382 417.222 204.304 417.603 204.304C417.984 204.304 418.296 204.226 418.296 204.131C418.296 204.036 418.529 203.958 418.815 203.958C419.101 203.958 419.334 203.88 419.334 203.785C419.334 203.69 419.646 203.612 420.027 203.612C420.408 203.612 420.72 203.534 420.72 203.439C420.72 203.343 420.953 203.265 421.239 203.265C421.525 203.265 421.758 203.187 421.758 203.092C421.758 202.997 421.992 202.919 422.278 202.919C422.563 202.919 422.797 202.841 422.797 202.746C422.797 202.651 423.031 202.573 423.317 202.573C423.602 202.573 423.836 202.495 423.836 202.4C423.836 202.304 424.07 202.227 424.355 202.227C424.641 202.227 424.875 202.149 424.875 202.053C424.875 201.958 425.109 201.88 425.394 201.88C425.68 201.88 425.914 201.802 425.914 201.707C425.914 201.612 426.147 201.534 426.433 201.534C426.719 201.534 426.952 201.456 426.952 201.361C426.952 201.266 427.186 201.188 427.472 201.188C427.758 201.188 427.991 201.11 427.991 201.015C427.991 200.919 428.225 200.841 428.511 200.841C428.796 200.841 429.03 200.764 429.03 200.668C429.03 200.573 429.186 200.495 429.376 200.495C429.567 200.495 429.723 200.417 429.723 200.322C429.723 200.227 429.956 200.149 430.242 200.149C430.528 200.149 430.761 200.071 430.761 199.976C430.761 199.88 430.917 199.803 431.108 199.803C431.298 199.803 431.454 199.725 431.454 199.629C431.454 199.534 431.688 199.456 431.973 199.456C432.259 199.456 432.493 199.378 432.493 199.283C432.493 199.188 432.649 199.11 432.839 199.11C433.03 199.11 433.185 199.032 433.185 198.937C433.185 198.842 433.419 198.764 433.705 198.764C433.99 198.764 434.224 198.686 434.224 198.591C434.224 198.495 434.38 198.417 434.57 198.417C434.761 198.417 434.917 198.34 434.917 198.244C434.917 198.149 435.073 198.071 435.263 198.071C435.453 198.071 435.609 197.993 435.609 197.898C435.609 197.803 435.843 197.725 436.129 197.725C436.414 197.725 436.648 197.647 436.648 197.552C436.648 197.457 436.804 197.379 436.994 197.379C437.185 197.379 437.341 197.301 437.341 197.205C437.341 197.11 437.496 197.032 437.687 197.032C437.877 197.032 438.033 196.954 438.033 196.859C438.033 196.764 438.189 196.686 438.379 196.686C438.57 196.686 438.726 196.608 438.726 196.513C438.726 196.418 438.881 196.34 439.072 196.34C439.262 196.34 439.418 196.262 439.418 196.167C439.418 196.071 439.574 195.994 439.764 195.994C439.955 195.994 440.111 195.916 440.111 195.82C440.111 195.725 440.267 195.647 440.457 195.647C440.647 195.647 440.803 195.569 440.803 195.474C440.803 195.379 440.959 195.301 441.15 195.301C441.34 195.301 441.496 195.223 441.496 195.128C441.496 195.033 441.652 194.955 441.842 194.955C442.033 194.955 442.188 194.877 442.188 194.782C442.188 194.686 442.344 194.608 442.535 194.608C442.725 194.608 442.881 194.53 442.881 194.435C442.881 194.34 443.02 194.262 443.189 194.262C443.358 194.262 443.609 194.106 443.747 193.916C443.884 193.725 444.135 193.57 444.304 193.57C444.474 193.57 444.612 193.492 444.612 193.396C444.612 193.301 444.768 193.223 444.959 193.223C445.149 193.223 445.305 193.145 445.305 193.05C445.305 192.955 445.444 192.877 445.613 192.877C445.782 192.877 446.033 192.721 446.171 192.531C446.308 192.34 446.542 192.184 446.69 192.184C446.838 192.184 447.072 192.029 447.209 191.838C447.347 191.648 447.597 191.492 447.767 191.492C447.936 191.492 448.075 191.414 448.075 191.319C448.075 191.224 448.214 191.146 448.383 191.146C448.553 191.146 448.803 190.99 448.941 190.799C449.078 190.609 449.312 190.453 449.46 190.453C449.608 190.453 449.842 190.297 449.979 190.107C450.117 189.916 450.351 189.761 450.499 189.761C450.647 189.761 450.881 189.605 451.018 189.414C451.156 189.224 451.375 189.068 451.507 189.068C451.638 189.068 451.963 188.834 452.23 188.549C452.497 188.263 452.823 188.029 452.954 188.029C453.085 188.029 453.305 187.873 453.442 187.683C453.579 187.492 453.797 187.337 453.927 187.337C454.056 187.337 454.461 187.025 454.827 186.644C455.193 186.263 455.583 185.951 455.693 185.951C455.803 185.951 456.193 185.64 456.559 185.259C456.925 184.878 457.311 184.566 457.418 184.566C457.525 184.566 458.229 183.943 458.983 183.181C459.736 182.419 460.435 181.796 460.535 181.796C460.774 181.796 464.35 178.22 464.35 177.981C464.35 177.88 464.895 177.259 465.562 176.602C466.228 175.945 466.774 175.32 466.774 175.214C466.774 175.108 467.163 174.642 467.639 174.178C468.115 173.714 468.505 173.244 468.505 173.133C468.505 173.022 468.739 172.713 469.024 172.447C469.31 172.18 469.544 171.868 469.544 171.754C469.544 171.64 469.778 171.328 470.063 171.061C470.349 170.795 470.583 170.483 470.583 170.369C470.583 170.255 470.816 169.943 471.102 169.676C471.388 169.41 471.621 169.084 471.621 168.953C471.621 168.821 471.777 168.602 471.968 168.464C472.158 168.327 472.314 168.076 472.314 167.907C472.314 167.737 472.392 167.599 472.487 167.599C472.582 167.599 472.66 167.46 472.66 167.291C472.66 167.121 472.816 166.87 473.007 166.733C473.197 166.596 473.353 166.362 473.353 166.214C473.353 166.065 473.509 165.831 473.699 165.694C473.89 165.557 474.045 165.306 474.045 165.136C474.045 164.967 474.123 164.828 474.218 164.828C474.314 164.828 474.392 164.69 474.392 164.52C474.392 164.351 474.547 164.1 474.738 163.963C474.928 163.825 475.084 163.575 475.084 163.405C475.084 163.236 475.162 163.097 475.257 163.097C475.353 163.097 475.43 162.941 475.43 162.751C475.43 162.56 475.508 162.405 475.604 162.405C475.699 162.405 475.777 162.266 475.777 162.097C475.777 161.927 475.933 161.676 476.123 161.539C476.313 161.402 476.469 161.151 476.469 160.981C476.469 160.812 476.547 160.673 476.642 160.673C476.738 160.673 476.816 160.517 476.816 160.327C476.816 160.136 476.893 159.981 476.989 159.981C477.084 159.981 477.162 159.825 477.162 159.634C477.162 159.444 477.24 159.288 477.335 159.288C477.43 159.288 477.508 159.132 477.508 158.942C477.508 158.751 477.586 158.595 477.681 158.595C477.776 158.595 477.854 158.362 477.854 158.076C477.854 157.79 477.932 157.557 478.027 157.557C478.123 157.557 478.201 157.401 478.201 157.21C478.201 157.02 478.279 156.864 478.374 156.864C478.469 156.864 478.547 156.708 478.547 156.518C478.547 156.327 478.625 156.172 478.72 156.172C478.815 156.172 478.893 156.016 478.893 155.825C478.893 155.635 478.971 155.479 479.066 155.479C479.161 155.479 479.239 155.323 479.239 155.133C479.239 154.942 479.317 154.786 479.413 154.786C479.508 154.786 479.586 154.553 479.586 154.267C479.586 153.981 479.664 153.748 479.759 153.748C479.854 153.748 479.932 153.592 479.932 153.401C479.932 153.211 480.01 153.055 480.105 153.055C480.2 153.055 480.278 152.821 480.278 152.536C480.278 152.25 480.356 152.016 480.451 152.016C480.547 152.016 480.624 151.86 480.624 151.67C480.624 151.479 480.702 151.324 480.798 151.324C480.893 151.324 480.971 151.09 480.971 150.804C480.971 150.519 481.049 150.285 481.144 150.285C481.239 150.285 481.317 150.051 481.317 149.765C481.317 149.48 481.395 149.246 481.49 149.246C481.585 149.246 481.663 149.09 481.663 148.9C481.663 148.709 481.741 148.553 481.836 148.553C481.932 148.553 482.01 148.32 482.01 148.034C482.01 147.748 482.087 147.515 482.183 147.515C482.278 147.515 482.356 147.281 482.356 146.995C482.356 146.709 482.434 146.476 482.529 146.476C482.624 146.476 482.702 146.242 482.702 145.956C482.702 145.671 482.78 145.437 482.875 145.437C482.97 145.437 483.048 145.125 483.048 144.744C483.048 144.363 483.126 144.052 483.222 144.052C483.317 144.052 483.395 143.818 483.395 143.532C483.395 143.247 483.473 143.013 483.568 143.013C483.663 143.013 483.741 142.701 483.741 142.32C483.741 141.939 483.819 141.628 483.914 141.628C484.009 141.628 484.087 141.394 484.087 141.108C484.087 140.823 484.165 140.589 484.26 140.589C484.356 140.589 484.433 140.199 484.433 139.723C484.433 139.247 484.511 138.858 484.607 138.858C484.702 138.858 484.78 138.546 484.78 138.165C484.78 137.784 484.858 137.472 484.953 137.472C485.048 137.472 485.126 137.161 485.126 136.78C485.126 136.399 485.204 136.087 485.299 136.087C485.394 136.087 485.472 135.698 485.472 135.222C485.472 134.746 485.55 134.356 485.645 134.356C485.741 134.356 485.819 133.966 485.819 133.49C485.819 133.014 485.896 132.625 485.992 132.625C486.088 132.625 486.165 132.163 486.165 131.586C486.165 131.009 486.242 130.547 486.338 130.547C486.433 130.547 486.511 130.157 486.511 129.681C486.511 129.205 486.589 128.816 486.684 128.816C486.785 128.816 486.857 128.238 486.857 127.43C486.857 126.622 486.93 126.045 487.031 126.045C487.129 126.045 487.204 125.526 487.204 124.833C487.204 124.141 487.278 123.621 487.377 123.621C487.481 123.621 487.55 122.929 487.55 121.89C487.55 120.851 487.619 120.159 487.723 120.159C487.828 120.159 487.896 119.408 487.896 118.254C487.896 117.1 487.964 116.35 488.069 116.35C488.179 116.35 488.242 114.964 488.242 112.54C488.242 110.117 488.305 108.731 488.416 108.731C488.531 108.731 488.589 91.0975 488.589 56.1759V3.62017L489.014 3.19528C489.446 2.76295 490.666 2.577 490.666 2.94337C490.666 3.03859 490.784 3.1165 490.928 3.1165C491.071 3.1165 494.226 6.1551 497.938 9.86893C501.65 13.5828 504.767 16.6214 504.863 16.6214C504.961 16.6214 507.999 19.582 511.616 23.2006C515.232 26.8193 518.271 29.7799 518.368 29.7799C518.465 29.7799 521.504 32.7406 525.12 36.3592C528.737 39.9778 531.776 42.9385 531.873 42.9385C531.97 42.9385 535.008 45.8992 538.625 49.5178C542.242 53.1364 545.28 56.0971 545.377 56.0971C545.474 56.0971 548.591 59.1357 552.303 62.8495C556.015 66.5633 559.131 69.6019 559.228 69.6019C559.325 69.6019 562.364 72.5626 565.98 76.1812C569.597 79.7998 572.636 82.7605 572.733 82.7605C572.83 82.7605 575.868 85.7212 579.485 89.3398C583.102 92.9584 586.14 95.9191 586.237 95.9191C586.466 95.9191 594.201 103.654 594.201 103.883C594.201 104.113 585.773 112.54 585.544 112.54C585.447 112.54 582.487 115.423 578.966 118.947C575.444 122.47 572.483 125.353 572.386 125.353C572.289 125.353 569.251 128.313 565.634 131.932C562.017 135.551 558.979 138.511 558.882 138.511C558.785 138.511 555.824 141.394 552.303 144.917C548.781 148.441 545.821 151.324 545.723 151.324C545.626 151.324 542.588 154.284 538.971 157.903C535.355 161.522 532.316 164.482 532.219 164.482C532.122 164.482 529.161 167.365 525.64 170.888C522.118 174.412 519.158 177.294 519.061 177.294C518.963 177.294 515.925 180.255 512.308 183.874C508.692 187.492 505.653 190.453 505.556 190.453C505.459 190.453 502.498 193.336 498.977 196.859C495.455 200.383 492.495 203.265 492.398 203.265C492.223 203.265 487.896 207.508 487.896 207.679C487.896 207.727 507.496 207.767 531.452 207.767C577.247 207.767 575.503 207.794 575.503 207.086C575.503 206.984 586.878 195.526 600.781 181.623C614.683 167.72 626.058 156.267 626.058 156.171C626.058 156.076 629.058 152.998 632.724 149.331L639.39 142.666L671.939 175.216L704.488 207.767H747.686C771.445 207.767 790.884 207.728 790.884 207.68C790.884 207.509 775.818 192.531 775.647 192.531C775.55 192.531 772.123 189.18 768.03 185.086C763.937 180.991 760.508 177.641 760.412 177.641C760.315 177.641 756.887 174.291 752.794 170.196C748.701 166.101 745.273 162.751 745.176 162.751C745.079 162.751 741.651 159.401 737.558 155.306C733.465 151.211 730.037 147.861 729.94 147.861C729.843 147.861 726.415 144.511 722.322 140.416C718.229 136.321 714.801 132.971 714.704 132.971C714.607 132.971 711.257 129.699 707.259 125.699C703.261 121.7 699.873 118.427 699.729 118.427C699.583 118.427 699.468 118.274 699.468 118.081C699.468 117.888 699.352 117.735 699.208 117.735C698.923 117.735 685.271 104.166 685.271 103.883C685.271 103.655 699.241 89.6861 699.469 89.6861C699.565 89.6861 703.149 86.18 707.432 81.8948C711.716 77.6096 715.3 74.1036 715.396 74.1036C715.493 74.1036 719.077 70.5975 723.361 66.3123C727.644 62.0271 731.228 58.521 731.325 58.521C731.422 58.521 734.928 55.0929 739.116 50.9029C743.304 46.7129 746.81 43.2848 746.907 43.2848C747.004 43.2848 750.588 39.7787 754.871 35.4935C759.155 31.2083 762.739 27.7023 762.836 27.7023C762.932 27.7023 766.516 24.1962 770.8 19.911C775.083 15.6258 778.667 12.1197 778.763 12.1197C778.935 12.1197 790.884 0.257977 790.884 0.0872621C790.884 0.0393025 771.445 0 747.686 0H704.488L671.939 32.5505L639.39 65.1008L622.682 48.3929C613.493 39.2036 605.975 31.6067 605.975 31.5113C605.975 31.4158 598.924 24.2867 590.306 15.6689L574.638 0H499.064H423.49V54.712C423.49 91.0712 423.432 109.424 423.317 109.424C423.21 109.424 423.143 110.29 423.143 111.675C423.143 113.06 423.077 113.926 422.97 113.926C422.871 113.926 422.797 114.445 422.797 115.138C422.797 115.83 422.723 116.35 422.624 116.35C422.528 116.35 422.451 116.811 422.451 117.388C422.451 117.965 422.374 118.427 422.278 118.427C422.183 118.427 422.105 118.817 422.105 119.293C422.105 119.769 422.027 120.159 421.932 120.159C421.836 120.159 421.758 120.47 421.758 120.851C421.758 121.232 421.68 121.544 421.585 121.544C421.49 121.544 421.412 121.855 421.412 122.236C421.412 122.617 421.334 122.929 421.239 122.929C421.144 122.929 421.066 123.163 421.066 123.448C421.066 123.734 420.988 123.968 420.893 123.968C420.797 123.968 420.72 124.201 420.72 124.487C420.72 124.773 420.642 125.006 420.546 125.006C420.451 125.006 420.373 125.24 420.373 125.526C420.373 125.812 420.295 126.045 420.2 126.045C420.105 126.045 420.027 126.279 420.027 126.565C420.027 126.85 419.949 127.084 419.854 127.084C419.759 127.084 419.681 127.24 419.681 127.43C419.681 127.621 419.603 127.777 419.508 127.777C419.412 127.777 419.334 128.01 419.334 128.296C419.334 128.582 419.257 128.816 419.161 128.816C419.066 128.816 418.988 128.971 418.988 129.162C418.988 129.352 418.91 129.508 418.815 129.508C418.72 129.508 418.642 129.664 418.642 129.854C418.642 130.045 418.564 130.201 418.469 130.201C418.374 130.201 418.296 130.356 418.296 130.547C418.296 130.737 418.218 130.893 418.123 130.893C418.027 130.893 417.949 131.049 417.949 131.239C417.949 131.43 417.871 131.586 417.776 131.586C417.681 131.586 417.603 131.742 417.603 131.932C417.603 132.122 417.525 132.278 417.43 132.278C417.335 132.278 417.257 132.417 417.257 132.586C417.257 132.756 417.101 133.007 416.911 133.144C416.72 133.281 416.564 133.515 416.564 133.663C416.564 133.812 416.408 134.046 416.218 134.183C416.028 134.32 415.872 134.554 415.872 134.702C415.872 134.851 415.716 135.084 415.525 135.222C415.335 135.359 415.179 135.579 415.179 135.71C415.179 135.841 414.945 136.167 414.66 136.434C414.374 136.7 414.14 137.005 414.14 137.11C414.14 137.361 408.835 142.667 408.584 142.667C408.479 142.667 408.174 142.9 407.908 143.186C407.641 143.472 407.329 143.705 407.215 143.705C407.101 143.705 406.789 143.939 406.522 144.225C406.256 144.511 405.93 144.744 405.799 144.744C405.668 144.744 405.448 144.9 405.31 145.091C405.173 145.281 404.939 145.437 404.791 145.437C404.643 145.437 404.409 145.593 404.272 145.783C404.134 145.974 403.884 146.129 403.714 146.129C403.545 146.129 403.406 146.207 403.406 146.303C403.406 146.398 403.25 146.476 403.06 146.476C402.869 146.476 402.713 146.554 402.713 146.649C402.713 146.744 402.558 146.822 402.367 146.822C402.177 146.822 402.021 146.9 402.021 146.995C402.021 147.09 401.865 147.168 401.675 147.168C401.484 147.168 401.328 147.246 401.328 147.341C401.328 147.437 401.173 147.515 400.982 147.515C400.792 147.515 400.636 147.592 400.636 147.688C400.636 147.783 400.48 147.861 400.29 147.861C400.099 147.861 399.943 147.939 399.943 148.034C399.943 148.129 399.787 148.207 399.597 148.207C399.407 148.207 399.251 148.285 399.251 148.38C399.251 148.475 399.095 148.553 398.904 148.553C398.714 148.553 398.558 148.631 398.558 148.727C398.558 148.822 398.402 148.9 398.212 148.9C398.021 148.9 397.866 148.978 397.866 149.073C397.866 149.168 397.71 149.246 397.519 149.246C397.329 149.246 397.173 149.324 397.173 149.419C397.173 149.514 396.939 149.592 396.654 149.592C396.368 149.592 396.134 149.67 396.134 149.765C396.134 149.861 395.978 149.939 395.788 149.939C395.598 149.939 395.442 150.016 395.442 150.112C395.442 150.207 395.208 150.285 394.922 150.285C394.637 150.285 394.403 150.363 394.403 150.458C394.403 150.553 394.169 150.631 393.884 150.631C393.598 150.631 393.364 150.709 393.364 150.804C393.364 150.899 393.13 150.977 392.845 150.977C392.559 150.977 392.325 151.055 392.325 151.15C392.325 151.246 392.092 151.324 391.806 151.324C391.52 151.324 391.287 151.402 391.287 151.497C391.287 151.592 390.975 151.67 390.594 151.67C390.213 151.67 389.901 151.748 389.901 151.843C389.901 151.938 389.668 152.016 389.382 152.016C389.096 152.016 388.863 152.094 388.863 152.189C388.863 152.285 388.551 152.362 388.17 152.362C387.789 152.362 387.478 152.44 387.478 152.536C387.478 152.631 387.166 152.709 386.785 152.709C386.404 152.709 386.092 152.787 386.092 152.882C386.092 152.977 385.703 153.055 385.227 153.055C384.751 153.055 384.361 153.133 384.361 153.228C384.361 153.323 383.972 153.401 383.495 153.401C383.019 153.401 382.63 153.479 382.63 153.574C382.63 153.671 382.168 153.748 381.591 153.748C381.014 153.748 380.552 153.824 380.552 153.921C380.552 154.02 380.033 154.094 379.34 154.094C378.648 154.094 378.128 154.168 378.128 154.267C378.128 154.368 377.551 154.44 376.743 154.44C375.935 154.44 375.358 154.512 375.358 154.613C375.358 154.717 374.665 154.786 373.627 154.786C372.588 154.786 371.895 154.856 371.895 154.96C371.895 155.067 370.914 155.133 369.298 155.133C367.682 155.133 366.701 155.198 366.701 155.306C366.701 155.419 364.047 155.479 359.083 155.479C354.12 155.479 351.465 155.419 351.465 155.306C351.465 155.198 350.427 155.133 348.695 155.133C346.964 155.133 345.925 155.068 345.925 154.96C345.925 154.856 345.232 154.786 344.194 154.786C343.155 154.786 342.462 154.717 342.462 154.613C342.462 154.512 341.885 154.44 341.077 154.44C340.269 154.44 339.692 154.368 339.692 154.267C339.692 154.171 339.23 154.094 338.653 154.094C338.076 154.094 337.614 154.017 337.614 153.921C337.614 153.824 337.153 153.748 336.576 153.748C335.999 153.748 335.537 153.671 335.537 153.574C335.537 153.479 335.147 153.401 334.671 153.401C334.195 153.401 333.805 153.323 333.805 153.228C333.805 153.133 333.416 153.055 332.94 153.055C332.464 153.055 332.074 152.977 332.074 152.882C332.074 152.787 331.762 152.709 331.382 152.709C331.001 152.709 330.689 152.631 330.689 152.536C330.689 152.44 330.377 152.362 329.996 152.362C329.616 152.362 329.304 152.285 329.304 152.189C329.304 152.094 328.992 152.016 328.611 152.016C328.231 152.016 327.919 151.938 327.919 151.843C327.919 151.748 327.685 151.67 327.399 151.67C327.114 151.67 326.88 151.592 326.88 151.497C326.88 151.402 326.568 151.324 326.188 151.324C325.807 151.324 325.495 151.246 325.495 151.15C325.495 151.055 325.261 150.977 324.976 150.977C324.69 150.977 324.456 150.899 324.456 150.804C324.456 150.709 324.222 150.631 323.937 150.631C323.651 150.631 323.417 150.553 323.417 150.458C323.417 150.363 323.262 150.285 323.071 150.285C322.881 150.285 322.725 150.207 322.725 150.112C322.725 150.016 322.491 149.939 322.205 149.939C321.92 149.939 321.686 149.861 321.686 149.765C321.686 149.67 321.53 149.592 321.34 149.592C321.149 149.592 320.993 149.514 320.993 149.419C320.993 149.324 320.76 149.246 320.474 149.246C320.188 149.246 319.955 149.168 319.955 149.073C319.955 148.978 319.799 148.9 319.608 148.9C319.418 148.9 319.262 148.822 319.262 148.727C319.262 148.631 319.106 148.553 318.916 148.553C318.725 148.553 318.57 148.475 318.57 148.38C318.57 148.285 318.414 148.207 318.223 148.207C318.033 148.207 317.877 148.129 317.877 148.034C317.877 147.939 317.721 147.861 317.531 147.861C317.34 147.861 317.184 147.783 317.184 147.688C317.184 147.592 317.029 147.515 316.838 147.515C316.648 147.515 316.492 147.437 316.492 147.341C316.492 147.246 316.336 147.168 316.146 147.168C315.955 147.168 315.799 147.09 315.799 146.995C315.799 146.9 315.644 146.822 315.453 146.822C315.263 146.822 315.107 146.744 315.107 146.649C315.107 146.554 314.968 146.476 314.799 146.476C314.629 146.476 314.378 146.32 314.241 146.129C314.104 145.939 313.87 145.783 313.722 145.783C313.573 145.783 313.34 145.627 313.202 145.437C313.065 145.246 312.831 145.091 312.683 145.091C312.535 145.091 312.301 144.935 312.164 144.744C312.026 144.554 311.807 144.398 311.675 144.398C311.544 144.398 311.218 144.164 310.952 143.879C310.685 143.593 310.375 143.359 310.263 143.359C310.15 143.359 309.759 143.048 309.393 142.667C309.027 142.286 308.643 141.974 308.539 141.974C308.293 141.974 304.719 138.4 304.719 138.153C304.719 138.05 304.407 137.665 304.026 137.299C303.645 136.933 303.334 136.542 303.334 136.43C303.334 136.318 303.1 136.008 302.814 135.741C302.529 135.474 302.295 135.148 302.295 135.017C302.295 134.886 302.139 134.666 301.949 134.529C301.758 134.392 301.602 134.158 301.602 134.01C301.602 133.861 301.446 133.628 301.256 133.49C301.066 133.353 300.91 133.102 300.91 132.933C300.91 132.763 300.832 132.625 300.737 132.625C300.641 132.625 300.563 132.469 300.563 132.278C300.563 132.088 300.486 131.932 300.39 131.932C300.295 131.932 300.217 131.776 300.217 131.586C300.217 131.395 300.139 131.239 300.044 131.239C299.949 131.239 299.871 131.084 299.871 130.893C299.871 130.703 299.793 130.547 299.698 130.547C299.603 130.547 299.525 130.391 299.525 130.201C299.525 130.01 299.447 129.854 299.351 129.854C299.256 129.854 299.178 129.699 299.178 129.508C299.178 129.318 299.1 129.162 299.005 129.162C298.91 129.162 298.832 129.006 298.832 128.816C298.832 128.625 298.754 128.469 298.659 128.469C298.564 128.469 298.486 128.236 298.486 127.95C298.486 127.664 298.408 127.43 298.313 127.43C298.217 127.43 298.14 127.275 298.14 127.084C298.14 126.894 298.062 126.738 297.966 126.738C297.871 126.738 297.793 126.504 297.793 126.218C297.793 125.933 297.715 125.699 297.62 125.699C297.525 125.699 297.447 125.465 297.447 125.18C297.447 124.894 297.369 124.66 297.274 124.66C297.179 124.66 297.101 124.349 297.101 123.968C297.101 123.587 297.023 123.275 296.928 123.275C296.832 123.275 296.754 123.041 296.754 122.756C296.754 122.47 296.677 122.236 296.581 122.236C296.486 122.236 296.408 121.925 296.408 121.544C296.408 121.163 296.33 120.851 296.235 120.851C296.14 120.851 296.062 120.462 296.062 119.985C296.062 119.509 295.984 119.12 295.889 119.12C295.793 119.12 295.716 118.658 295.716 118.081C295.716 117.504 295.639 117.042 295.543 117.042C295.446 117.042 295.369 116.58 295.369 116.003C295.369 115.426 295.293 114.964 295.196 114.964C295.091 114.964 295.023 114.214 295.023 113.06C295.023 111.906 294.955 111.155 294.85 111.155C294.735 111.155 294.677 92.514 294.677 55.5777V0H262.3H229.924V56.9628ZM0.21642 0.605295C0.0438033 0.801288 0 21.8931 0 104.828V208.806H114.962H229.924V180.93V153.055H147.338H64.7527V76.7006V0.346278L32.5928 0.352858C5.03686 0.358571 0.401848 0.394584 0.21642 0.605295Z" fill="white"/>
</svg>
